<svg width="45" height="46" viewBox="0 0 45 46" fill="none" xmlns="http://www.w3.org/2000/svg">
<path d="M36.9925 10.745C36.9925 7.60564 35.7594 4.75501 33.5204 2.71823C31.6493 1.01611 29.2026 0 26.9755 0C26.0049 0 25.2181 0.804288 25.2181 1.79645C25.2181 2.78861 26.0049 3.5929 26.9755 3.5929C28.3237 3.5929 29.9756 4.30312 31.1838 5.40227C32.2304 6.35428 33.4777 8.05382 33.4777 10.7452C33.4777 13.1033 31.5585 15.3914 27.7734 17.5459C24.3282 19.507 20.3116 20.7981 17.9118 21.5696C17.3746 21.7423 16.9106 21.8914 16.562 22.0142C14.8442 22.6188 11.1929 23.9041 8.00721 26.1166C6.15502 27.403 4.68624 28.8417 3.64149 30.3926C2.33308 32.3353 1.66956 34.4697 1.66956 36.7366C1.66956 39.0813 2.47448 41.0519 4.06199 42.5932C7.27367 45.7115 12.8338 46.0001 14.7801 46.0001C15.1709 46.0001 15.416 45.9885 15.4672 45.9858C16.4356 45.9349 17.1792 45.0919 17.1308 44.1019C17.0823 43.1121 16.2592 42.3479 15.2889 42.3975C13.6145 42.4811 8.76427 42.2099 6.47768 39.9836C5.60745 39.1359 5.18434 38.0738 5.18434 36.7365C5.18434 29.8187 14.6285 26.4945 17.7067 25.411C18.0105 25.3041 18.4534 25.1617 18.9662 24.9969C24.3604 23.2628 36.9925 19.202 36.9925 10.745Z" fill="white"/>
<path d="M9.75327 11.2276C14.006 11.2276 16.7116 9.05253 19.0985 7.13368C19.7732 6.59134 20.4103 6.07915 21.0819 5.60624C21.8813 5.04349 22.0829 3.92488 21.5324 3.10793C20.9817 2.29072 19.8875 2.08476 19.0883 2.64742C18.325 3.18476 17.6138 3.75665 16.9259 4.30958C14.7065 6.09388 12.7896 7.63484 9.75327 7.63484C5.65754 7.63484 3.51462 4.69781 3.51462 1.79653C3.5147 0.804288 2.7279 0 1.75731 0C0.78672 0 0 0.804288 0 1.79645C0 6.36832 3.4183 11.2276 9.75327 11.2276Z" fill="white"/>
<path d="M43.1098 23.0282C43.1097 23.0282 43.1097 23.0282 43.1098 23.0282C41.8981 21.7897 40.2873 21.1077 38.574 21.1077C36.8607 21.1077 35.2499 21.7896 34.0384 23.0282L25.1542 32.1098C23.3737 33.9299 22.1719 36.226 21.6783 38.7499L20.6831 43.8395C20.5679 44.4284 20.7483 45.0372 21.1638 45.4619C21.4966 45.8021 21.945 45.988 22.4065 45.988C22.5211 45.988 22.6363 45.9766 22.7509 45.9531L27.7298 44.9358C30.1988 44.4313 32.445 43.2027 34.2255 41.3827L43.1097 32.301C44.3212 31.0626 44.9885 29.416 44.9885 27.6646C44.9885 25.9132 44.3213 24.2666 43.1098 23.0282ZM40.6244 29.7605L31.7402 38.8422C30.4521 40.1589 28.8272 41.0478 27.041 41.4127L24.6464 41.9019L25.125 39.4541C25.4821 37.6282 26.3514 35.9671 27.6396 34.6505L36.5238 25.5688C37.0714 25.009 37.7997 24.7006 38.5742 24.7006C39.3487 24.7006 40.0769 25.009 40.6245 25.5689C41.1721 26.1286 41.4738 26.873 41.4738 27.6647C41.4738 28.4564 41.1721 29.2007 40.6244 29.7605Z" fill="white"/>
</svg>
